<svg width="139" height="22" viewBox="0 0 139 22" fill="none" xmlns="http://www.w3.org/2000/svg">
<g id="sneakers 2">
<g id="sneakers">
<path fill-rule="evenodd" clip-rule="evenodd" d="M83.2973 11.9554L89.8261 21H84.5998L80.2425 14.9633L77.2223 17.9386V20.9543H73.0351V1H77.2223V12.2226L84.0577 5.46748H89.8847L83.2973 11.9554ZM52.6033 15.5951C52.1726 18.9292 49.48 21 44.3858 21C39.0697 21 36.0497 18.3232 36.0497 13.1544C36.0497 8.0812 39.1465 5.30913 44.3858 5.30913C46.5806 5.30913 48.3254 5.85922 49.637 6.77393V6.76839C52.6343 8.79242 52.903 12.0789 52.6627 14.2081H52.5082L52.5082 14.2092H40.1364C40.4244 16.2853 41.6647 17.3143 44.3858 17.3143C46.8985 17.3143 48.1427 16.615 48.5294 15.5951H52.6033ZM9.21683 21C13.9782 21 16.7358 20.2467 16.7358 16.3935C16.7358 12.9945 13.3557 12.2222 10.076 11.7123L9.51536 11.6271L9.23701 11.5855L8.88789 11.5332C6.18668 11.1276 5.70681 10.745 5.70681 10.062C5.70681 9.5842 6.19774 8.73096 8.54955 8.73096C11.0047 8.73096 12.043 9.37823 12.043 10.6013V10.7351H16.3245V10.6022C16.3245 8.21298 14.9744 5.36394 8.54955 5.36394C2.59817 5.36394 1.34873 7.94831 1.34873 10.116C1.34873 13.2131 4.11186 14.2017 8.57249 14.7914C8.78257 14.8188 9.00481 14.8454 9.23065 14.872C10.8997 15.0688 12.4032 15.2911 12.4032 16.4575C12.4032 17.4672 10.788 17.6787 9.10515 17.6787C6.30831 17.6787 5.32121 17.0865 5.32121 15.759V15.6253H1.0021L1.00044 15.9265L1 16.2433C1.00845 17.0334 1.11799 18.1559 2.05693 19.105C3.30277 20.3619 5.71152 21 9.21683 21ZM22.4271 21V13.5096C22.4271 11.4061 22.9736 9.08726 26.6033 9.08726C30.4137 9.08726 30.3856 11.7183 30.3716 13.0247L30.3706 13.1287L30.3701 21H34.551V13.2322C34.5501 10.9684 34.3754 5.46555 27.819 5.46555C25.0412 5.46555 23.627 6.37748 22.6244 7.74594H22.4271V5.46748H18.2205V21H22.4271ZM48.4846 11.4261H40.2972C40.7826 9.85164 42.0605 8.99479 44.3858 8.99479C47.3803 8.99479 48.1407 10.2625 48.4846 11.4261ZM71.499 5.45724V21H67.2905V18.8312H67.1589C66.1088 20.1825 64.3391 21 61.4251 21C54.9161 21 54.1831 15.3213 54.1831 13.2286L54.1839 13.0917C54.2125 10.7499 55.0044 5.45724 61.4369 5.45724C64.3054 5.45724 66.0612 6.36281 67.1141 7.73957L67.2905 7.73957V5.45724H71.499ZM62.6455 17.3766C58.6492 17.3766 58.1984 14.3454 58.1984 13.2286C58.1984 12.0194 58.6235 9.08062 62.6527 9.08062C66.2843 9.08062 67.0273 11.1249 67.0273 13.2286C67.0273 15.5796 66.2851 17.3766 62.6455 17.3766ZM99.7256 21C104.82 21 107.512 18.9292 107.943 15.5951H103.869C103.482 16.615 102.238 17.3143 99.7256 17.3143C97.0045 17.3143 95.7642 16.2853 95.4762 14.2092H107.848V14.2081H108.003C108.243 12.0789 107.974 8.79242 104.977 6.76839V6.77393C103.665 5.85922 101.92 5.30913 99.7256 5.30913C94.4863 5.30913 91.3896 8.0812 91.3896 13.1544C91.3896 18.3232 94.4095 21 99.7256 21ZM95.6371 11.4261H103.824C103.481 10.2625 102.72 8.99479 99.7256 8.99479C97.4004 8.99479 96.1225 9.85164 95.6371 11.4261ZM113.76 21V14.0306C113.76 11.9269 114.691 9.48814 117.81 9.48814C119.14 9.48814 120.203 9.72429 120.595 9.8342L121.265 5.85839C121.188 5.84144 121.109 5.82367 121.028 5.80546L121.028 5.80542C120.345 5.65147 119.519 5.46555 118.508 5.46555C115.843 5.46555 114.886 6.2601 114.022 7.74788H113.76V5.46555H109.551V21H113.76ZM138.5 16.3935C138.5 20.2467 135.742 21 130.981 21C127.476 21 125.067 20.3619 123.821 19.105C122.882 18.1559 122.773 17.0334 122.764 16.2433L122.765 15.9265L122.766 15.6253H127.085V15.759C127.085 17.0865 128.073 17.6787 130.869 17.6787C132.552 17.6787 134.167 17.4672 134.167 16.4575C134.167 15.2911 132.664 15.0688 130.995 14.872C130.769 14.8454 130.547 14.8188 130.337 14.7914C125.876 14.2017 123.113 13.2131 123.113 10.116C123.113 7.94831 124.362 5.36394 130.314 5.36394C136.739 5.36394 138.089 8.21298 138.089 10.6022V10.7351H133.807V10.6013C133.807 9.37823 132.769 8.73096 130.314 8.73096C127.962 8.73096 127.471 9.5842 127.471 10.062C127.471 10.745 127.951 11.1276 130.652 11.5332L131.001 11.5855L131.28 11.6271L131.84 11.7123C135.12 12.2222 138.5 12.9945 138.5 16.3935Z" fill="#1D2026"/>
<path d="M89.8261 21V21.5H90.8037L90.2315 20.7074L89.8261 21ZM83.2973 11.9554L82.9464 11.5992L82.6408 11.9002L82.8919 12.248L83.2973 11.9554ZM84.5998 21L84.1944 21.2926L84.344 21.5H84.5998V21ZM80.2425 14.9633L80.648 14.6707L80.3068 14.1981L79.8916 14.6072L80.2425 14.9633ZM77.2223 17.9386L76.8714 17.5824L76.7223 17.7293V17.9386H77.2223ZM77.2223 20.9543V21.4543H77.7223V20.9543H77.2223ZM73.0351 20.9543H72.5351V21.4543H73.0351V20.9543ZM73.0351 1V0.5H72.5351V1H73.0351ZM77.2223 1H77.7223V0.5H77.2223V1ZM77.2223 12.2226H76.7223V13.4196L77.5738 12.5782L77.2223 12.2226ZM84.0577 5.46748V4.96748H83.8523L83.7063 5.11185L84.0577 5.46748ZM89.8847 5.46748L90.2356 5.82372L91.1049 4.96748H89.8847V5.46748ZM52.6033 15.5951L53.0992 15.6592L53.172 15.0951H52.6033V15.5951ZM49.637 6.77393L49.351 7.18405L50.137 7.73219V6.77393H49.637ZM49.637 6.76839L49.9168 6.35402L49.137 5.82741V6.76839H49.637ZM52.6627 14.2081V14.7081H53.1095L53.1596 14.2642L52.6627 14.2081ZM52.5082 14.2081V13.7081H52.0065L52.0082 14.2098L52.5082 14.2081ZM52.5082 14.2092V14.7092H53.0099L53.0082 14.2075L52.5082 14.2092ZM40.1364 14.2092V13.7092H39.5622L39.6411 14.2779L40.1364 14.2092ZM48.5294 15.5951V15.0951H48.1842L48.0619 15.4178L48.5294 15.5951ZM10.076 11.7123L10.1528 11.2183L10.1512 11.218L10.076 11.7123ZM9.51536 11.6271L9.59054 11.1327L9.58915 11.1325L9.51536 11.6271ZM9.23701 11.5855L9.1629 12.08L9.16322 12.0801L9.23701 11.5855ZM8.88789 11.5332L8.81364 12.0277L8.81378 12.0277L8.88789 11.5332ZM12.043 10.7351H11.543V11.2351H12.043V10.7351ZM16.3245 10.7351V11.2351H16.8245V10.7351H16.3245ZM8.57249 14.7914L8.50696 15.2871L8.50781 15.2872L8.57249 14.7914ZM9.23065 14.872L9.28921 14.3754L9.28909 14.3754L9.23065 14.872ZM5.32121 15.6253H5.82121V15.1253H5.32121V15.6253ZM1.0021 15.6253V15.1253H0.504846L0.502108 15.6225L1.0021 15.6253ZM1.00044 15.9265L0.500445 15.9237L0.500443 15.9258L1.00044 15.9265ZM1 16.2433L0.499964 16.2426L0.500029 16.2486L1 16.2433ZM2.05693 19.105L1.70148 19.4566L1.70182 19.457L2.05693 19.105ZM22.4271 21V21.5H22.9271V21H22.4271ZM30.3716 13.0247L29.8716 13.0194L29.8716 13.0197L30.3716 13.0247ZM30.3706 13.1287L29.8706 13.1237L29.8706 13.1287L30.3706 13.1287ZM30.3701 21L29.8701 21L29.87 21.5H30.3701V21ZM34.551 21V21.5H35.051V21H34.551ZM34.551 13.2322L35.051 13.2322L35.051 13.232L34.551 13.2322ZM27.819 5.46555L27.819 4.96555L27.819 4.96555L27.819 5.46555ZM22.6244 7.74594V8.24594H22.8779L23.0278 8.04144L22.6244 7.74594ZM22.4271 7.74594H21.9271V8.24594H22.4271V7.74594ZM22.4271 5.46748H22.9271V4.96748H22.4271V5.46748ZM18.2205 5.46748V4.96748H17.7205V5.46748H18.2205ZM18.2205 21H17.7205V21.5H18.2205V21ZM40.2972 11.4261L39.8194 11.2788L39.6199 11.9261H40.2972V11.4261ZM48.4846 11.4261V11.9261H49.1537L48.9641 11.2844L48.4846 11.4261ZM71.499 21V21.5H71.999V21H71.499ZM71.499 5.45724H71.999V4.95724H71.499V5.45724ZM67.2905 21H66.7905V21.5H67.2905V21ZM67.2905 18.8312H67.7905V18.3312H67.2905V18.8312ZM67.1589 18.8312V18.3312H66.9142L66.7641 18.5244L67.1589 18.8312ZM54.1831 13.2286L53.6831 13.2256V13.2286H54.1831ZM54.1839 13.0917L53.6839 13.0856L53.6839 13.0887L54.1839 13.0917ZM67.1141 7.73957L66.717 8.04331L66.867 8.23957L67.1141 8.23957L67.1141 7.73957ZM67.2905 7.73957L67.2905 8.23957L67.7905 8.23957V7.73957H67.2905ZM67.2905 5.45724V4.95724H66.7905V5.45724H67.2905ZM107.943 15.5951L108.439 15.6592L108.512 15.0951H107.943V15.5951ZM103.869 15.5951V15.0951H103.524L103.402 15.4178L103.869 15.5951ZM95.4762 14.2092V13.7092H94.902L94.9809 14.2779L95.4762 14.2092ZM107.848 14.2092V14.7092H108.348V14.2092H107.848ZM107.848 14.2081V13.7081H107.348V14.2081H107.848ZM108.003 14.2081V14.7081H108.449L108.499 14.2642L108.003 14.2081ZM104.977 6.76839L105.257 6.35402L104.477 5.82741V6.76839H104.977ZM104.977 6.77393L104.691 7.18405L105.477 7.7322V6.77393H104.977ZM103.824 11.4261V11.9261H104.494L104.304 11.2844L103.824 11.4261ZM95.6371 11.4261L95.1593 11.2788L94.9597 11.9261H95.6371V11.4261ZM113.76 21V21.5H114.26V21H113.76ZM120.595 9.8342L120.46 10.3156L120.996 10.4658L121.088 9.91729L120.595 9.8342ZM121.265 5.85839L121.758 5.94149L121.837 5.47244L121.373 5.3701L121.265 5.85839ZM121.028 5.80546L121.138 5.31767L121.135 5.31701L121.028 5.80546ZM121.028 5.80542L120.918 6.29321L120.921 6.29387L121.028 5.80542ZM114.022 7.74788V8.24788H114.31L114.454 7.99893L114.022 7.74788ZM113.76 7.74788H113.26V8.24788H113.76V7.74788ZM113.76 5.46555H114.26V4.96555H113.76V5.46555ZM109.551 5.46555V4.96555H109.051V5.46555H109.551ZM109.551 21H109.051V21.5H109.551V21ZM123.821 19.105L123.466 19.4566L123.466 19.457L123.821 19.105ZM122.764 16.2433L122.264 16.2426L122.264 16.2486L122.764 16.2433ZM122.765 15.9265L122.265 15.9237L122.265 15.9258L122.765 15.9265ZM122.766 15.6253V15.1253H122.269L122.266 15.6225L122.766 15.6253ZM127.085 15.6253H127.585V15.1253H127.085V15.6253ZM130.995 14.872L131.053 14.3754L131.053 14.3754L130.995 14.872ZM130.337 14.7914L130.271 15.2871L130.272 15.2872L130.337 14.7914ZM138.089 10.7351V11.2351H138.589V10.7351H138.089ZM133.807 10.7351H133.307V11.2351H133.807V10.7351ZM130.652 11.5332L130.578 12.0277L130.578 12.0277L130.652 11.5332ZM131.001 11.5855L130.927 12.08L130.927 12.0801L131.001 11.5855ZM131.28 11.6271L131.355 11.1327L131.353 11.1325L131.28 11.6271ZM131.84 11.7123L131.917 11.2183L131.915 11.218L131.84 11.7123ZM90.2315 20.7074L83.7027 11.6628L82.8919 12.248L89.4207 21.2926L90.2315 20.7074ZM84.5998 21.5H89.8261V20.5H84.5998V21.5ZM79.8371 15.256L84.1944 21.2926L85.0052 20.7074L80.648 14.6707L79.8371 15.256ZM77.5732 18.2948L80.5934 15.3195L79.8916 14.6072L76.8714 17.5824L77.5732 18.2948ZM77.7223 20.9543V17.9386H76.7223V20.9543H77.7223ZM73.0351 21.4543H77.2223V20.4543H73.0351V21.4543ZM72.5351 1V20.9543H73.5351V1H72.5351ZM77.2223 0.5H73.0351V1.5H77.2223V0.5ZM77.7223 12.2226V1H76.7223V12.2226H77.7223ZM83.7063 5.11185L76.8709 11.8669L77.5738 12.5782L84.4092 5.82312L83.7063 5.11185ZM89.8847 4.96748H84.0577V5.96748H89.8847V4.96748ZM83.6481 12.3116L90.2356 5.82372L89.5339 5.11125L82.9464 11.5992L83.6481 12.3116ZM44.3858 21.5C46.9936 21.5 49.0511 20.9709 50.526 19.9603C52.0159 18.9394 52.867 17.4566 53.0992 15.6592L52.1074 15.5311C51.9089 17.0677 51.1984 18.2873 49.9608 19.1354C48.7082 19.9937 46.8723 20.5 44.3858 20.5V21.5ZM35.5497 13.1544C35.5497 15.8368 36.336 17.9475 37.8844 19.3822C39.4264 20.8111 41.6498 21.5 44.3858 21.5V20.5C41.8056 20.5 39.861 19.8505 38.5641 18.6487C37.2734 17.4528 36.5497 15.6408 36.5497 13.1544H35.5497ZM44.3858 4.80913C41.6823 4.80913 39.4613 5.52484 37.9128 6.96294C36.3586 8.40625 35.5497 10.514 35.5497 13.1544H36.5497C36.5497 10.7217 37.2892 8.90673 38.5933 7.69569C39.9029 6.47945 41.85 5.80913 44.3858 5.80913V4.80913ZM49.923 6.36381C48.5142 5.38134 46.6654 4.80913 44.3858 4.80913V5.80913C46.4958 5.80913 48.1365 6.3371 49.351 7.18405L49.923 6.36381ZM49.137 6.76839V6.77393H50.137V6.76839H49.137ZM53.1596 14.2642C53.4077 12.0651 53.1452 8.53414 49.9168 6.35402L49.3572 7.18276C52.1233 9.0507 52.3982 12.0926 52.1659 14.1521L53.1596 14.2642ZM52.5082 14.7081H52.6627V13.7081H52.5082V14.7081ZM53.0082 14.2075L53.0082 14.2064L52.0082 14.2098L52.0082 14.2109L53.0082 14.2075ZM40.1364 14.7092H52.5082V13.7092H40.1364V14.7092ZM44.3858 16.8143C43.0777 16.8143 42.2129 16.5652 41.6495 16.1409C41.1003 15.7273 40.7635 15.0908 40.6316 14.1405L39.6411 14.2779C39.7973 15.4037 40.2246 16.3197 41.0479 16.9397C41.8569 17.5489 42.9728 17.8143 44.3858 17.8143V16.8143ZM48.0619 15.4178C47.794 16.1244 46.857 16.8143 44.3858 16.8143V17.8143C46.94 17.8143 48.4914 17.1057 48.9969 15.7724L48.0619 15.4178ZM52.6033 15.0951H48.5294V16.0951H52.6033V15.0951ZM16.2358 16.3935C16.2358 17.2989 16.0737 17.9804 15.7912 18.5001C15.5118 19.0141 15.0966 19.4032 14.5306 19.6984C13.3659 20.3058 11.5998 20.5 9.21683 20.5V21.5C11.5952 21.5 13.5886 21.3175 14.9931 20.585C15.7116 20.2103 16.2834 19.6885 16.6698 18.9776C17.0532 18.2723 17.2358 17.4147 17.2358 16.3935H16.2358ZM9.99917 12.2064C11.6459 12.4624 13.2284 12.774 14.3971 13.4088C14.9729 13.7216 15.4273 14.1024 15.739 14.575C16.0479 15.0436 16.2358 15.6314 16.2358 16.3935H17.2358C17.2358 15.4561 17.0012 14.6728 16.5739 14.0246C16.1492 13.3806 15.5537 12.8991 14.8745 12.5301C13.5333 11.8016 11.7858 11.4721 10.1528 11.2183L9.99917 12.2064ZM9.44018 12.1214L10.0008 12.2066L10.1512 11.218L9.59054 11.1327L9.44018 12.1214ZM9.16322 12.0801L9.44157 12.1216L9.58915 11.1325L9.3108 11.091L9.16322 12.0801ZM8.81378 12.0277L9.1629 12.08L9.31112 11.0911L8.962 11.0387L8.81378 12.0277ZM5.20681 10.062C5.20681 10.293 5.24796 10.547 5.40109 10.7897C5.55162 11.0284 5.77868 11.206 6.05852 11.3477C6.59668 11.6202 7.46685 11.8254 8.81364 12.0277L8.96213 11.0387C7.60772 10.8354 6.88736 10.6465 6.51027 10.4556C6.33251 10.3656 6.27077 10.2941 6.24691 10.2563C6.22565 10.2226 6.20681 10.1726 6.20681 10.062H5.20681ZM8.54955 8.23096C7.32381 8.23096 6.50264 8.45155 5.97222 8.79909C5.42538 9.1574 5.20681 9.64193 5.20681 10.062H6.20681C6.20681 10.0043 6.23371 9.8233 6.52028 9.63553C6.82328 9.43699 7.42348 9.23096 8.54955 9.23096V8.23096ZM12.543 10.6013C12.543 10.2233 12.4621 9.86322 12.2743 9.5412C12.0863 9.21886 11.8083 8.96406 11.4598 8.77041C10.7804 8.39296 9.80287 8.23096 8.54955 8.23096V9.23096C9.7514 9.23096 10.5206 9.3926 10.9741 9.64456C11.192 9.76562 11.3271 9.90197 11.4105 10.045C11.4941 10.1883 11.543 10.3679 11.543 10.6013H12.543ZM12.543 10.7351V10.6013H11.543V10.7351H12.543ZM16.3245 10.2351H12.043V11.2351H16.3245V10.2351ZM15.8245 10.6022V10.7351H16.8245V10.6022H15.8245ZM8.54955 5.86394C11.6987 5.86394 13.5017 6.56347 14.5147 7.4613C15.5163 8.34897 15.8245 9.50151 15.8245 10.6022H16.8245C16.8245 9.31364 16.4577 7.84706 15.178 6.71292C13.9098 5.58894 11.8253 4.86394 8.54955 4.86394V5.86394ZM1.84873 10.116C1.84873 9.12918 2.12985 8.09932 3.04517 7.30465C3.97396 6.49827 5.635 5.86394 8.54955 5.86394V4.86394C5.51271 4.86394 3.57334 5.5218 2.38958 6.54953C1.19233 7.58898 0.848734 8.93516 0.848734 10.116H1.84873ZM8.63802 14.2957C6.4102 14.0012 4.69085 13.6149 3.53454 12.9591C2.96598 12.6366 2.55148 12.2585 2.2767 11.8093C2.00314 11.3621 1.84873 10.8129 1.84873 10.116H0.848734C0.848734 10.9677 1.03972 11.7035 1.42364 12.3311C1.80634 12.9568 2.36141 13.4434 3.04121 13.8289C4.38162 14.5891 6.27415 14.9919 8.50696 15.2871L8.63802 14.2957ZM9.28909 14.3754C9.0635 14.3489 8.84392 14.3226 8.63717 14.2956L8.50781 15.2872C8.72123 15.3151 8.94613 15.342 9.17221 15.3686L9.28909 14.3754ZM12.9032 16.4575C12.9032 16.0462 12.7661 15.6947 12.5159 15.4132C12.2764 15.1437 11.9561 14.9635 11.6231 14.8348C10.9685 14.5817 10.1086 14.4721 9.28921 14.3754L9.17209 15.3685C10.0218 15.4688 10.7481 15.5686 11.2625 15.7675C11.514 15.8648 11.6739 15.9711 11.7684 16.0775C11.8523 16.1719 11.9032 16.2856 11.9032 16.4575H12.9032ZM9.10515 18.1787C9.95406 18.1787 10.8388 18.1269 11.5252 17.9267C11.8688 17.8265 12.2045 17.6776 12.4611 17.444C12.7331 17.1963 12.9032 16.8633 12.9032 16.4575H11.9032C11.9032 16.5565 11.8713 16.6286 11.7879 16.7045C11.6891 16.7945 11.5158 16.8878 11.2453 16.9667C10.7034 17.1247 9.93911 17.1787 9.10515 17.1787V18.1787ZM4.82121 15.759C4.82121 16.1523 4.89445 16.5283 5.08336 16.8641C5.27413 17.2033 5.56229 17.4647 5.93144 17.6591C6.64298 18.0337 7.69539 18.1787 9.10515 18.1787V17.1787C7.71808 17.1787 6.87851 17.0276 6.39729 16.7742C6.17006 16.6546 6.03664 16.5191 5.95492 16.3738C5.87135 16.2253 5.82121 16.0295 5.82121 15.759H4.82121ZM4.82121 15.6253V15.759H5.82121V15.6253H4.82121ZM1.0021 16.1253H5.32121V15.1253H1.0021V16.1253ZM1.50043 15.9293L1.50209 15.628L0.502108 15.6225L0.50045 15.9237L1.50043 15.9293ZM1.5 16.244L1.50044 15.9272L0.500443 15.9258L0.5 16.2426L1.5 16.244ZM2.41238 18.7533C1.61292 17.9452 1.508 16.9884 1.49997 16.2379L0.500029 16.2486C0.508907 17.0784 0.623061 18.3665 1.70148 19.4566L2.41238 18.7533ZM9.21683 20.5C5.73086 20.5 3.50628 19.8569 2.41204 18.753L1.70182 19.457C3.09926 20.8668 5.69217 21.5 9.21683 21.5V20.5ZM21.9271 13.5096V21H22.9271V13.5096H21.9271ZM26.6033 8.58726C24.6736 8.58726 23.4531 9.21137 22.7445 10.2227C22.0621 11.1969 21.9271 12.4345 21.9271 13.5096H22.9271C22.9271 12.4813 23.0653 11.5077 23.5635 10.7965C24.0357 10.1226 24.9033 9.58726 26.6033 9.58726V8.58726ZM30.8716 13.0301C30.8784 12.3958 30.9005 11.2747 30.3561 10.3187C29.7773 9.3021 28.6378 8.58726 26.6033 8.58726V9.58726C28.3792 9.58726 29.1309 10.1879 29.4871 10.8135C29.8778 11.4996 29.8788 12.3472 29.8716 13.0194L30.8716 13.0301ZM30.8706 13.1337L30.8716 13.0297L29.8716 13.0197L29.8706 13.1237L30.8706 13.1337ZM30.8701 21L30.8706 13.1288L29.8706 13.1287L29.8701 21L30.8701 21ZM34.551 20.5H30.3701V21.5H34.551V20.5ZM34.051 13.2322V21H35.051V13.2322H34.051ZM27.819 5.96555C29.3873 5.96555 30.5362 6.29414 31.3835 6.79186C32.2292 7.28868 32.8048 7.97182 33.1998 8.73081C34.0012 10.2705 34.0506 12.0997 34.051 13.2324L35.051 13.232C35.0506 12.101 35.0122 10.0469 34.0869 8.26912C33.6186 7.36941 32.9211 6.53535 31.89 5.92963C30.8604 5.32481 29.5288 4.96555 27.819 4.96555V5.96555ZM23.0278 8.04144C23.4916 7.40828 24.0361 6.89898 24.7735 6.5428C25.5149 6.18465 26.4842 5.96555 27.819 5.96555L27.819 4.96555C26.376 4.96555 25.2493 5.20241 24.3385 5.64235C23.4237 6.08424 22.7598 6.71513 22.2211 7.45044L23.0278 8.04144ZM22.4271 8.24594H22.6244V7.24594H22.4271V8.24594ZM21.9271 5.46748V7.74594H22.9271V5.46748H21.9271ZM18.2205 5.96748H22.4271V4.96748H18.2205V5.96748ZM18.7205 21V5.46748H17.7205V21H18.7205ZM22.4271 20.5H18.2205V21.5H22.4271V20.5ZM40.2972 11.9261H48.4846V10.9261H40.2972V11.9261ZM44.3858 8.49479C43.167 8.49479 42.1657 8.71864 41.3904 9.19368C40.6036 9.67573 40.0935 10.3897 39.8194 11.2788L40.7751 11.5734C40.9864 10.888 41.3579 10.3863 41.9128 10.0464C42.4791 9.69937 43.2794 9.49479 44.3858 9.49479V8.49479ZM48.9641 11.2844C48.7777 10.6537 48.4595 9.93 47.732 9.37624C47.0085 8.82548 45.9492 8.49479 44.3858 8.49479V9.49479C45.8169 9.49479 46.635 9.79795 47.1263 10.1719C47.6137 10.5429 47.8476 11.0348 48.0051 11.5678L48.9641 11.2844ZM71.999 21V5.45724H70.999V21H71.999ZM67.2905 21.5H71.499V20.5H67.2905V21.5ZM66.7905 18.8312V21H67.7905V18.8312H66.7905ZM67.1589 19.3312H67.2905V18.3312H67.1589V19.3312ZM61.4251 21.5C64.4325 21.5 66.3768 20.6524 67.5537 19.138L66.7641 18.5244C65.8407 19.7126 64.2457 20.5 61.4251 20.5V21.5ZM53.6831 13.2286C53.6831 14.3151 53.8705 16.3619 54.9331 18.1541C56.0187 19.9849 57.9914 21.5 61.4251 21.5V20.5C58.3498 20.5 56.7015 19.1757 55.7933 17.6441C54.8622 16.0737 54.6831 14.2348 54.6831 13.2286H53.6831ZM53.6839 13.0887L53.6831 13.2256L54.6831 13.2317L54.6839 13.0948L53.6839 13.0887ZM61.4369 4.95724C58.0547 4.95724 56.0848 6.36392 54.9844 8.13212C53.9079 9.86199 53.6987 11.8789 53.6839 13.0856L54.6839 13.0978C54.6977 11.9627 54.8988 10.1624 55.8335 8.66049C56.7443 7.19689 58.3867 5.95724 61.4369 5.95724V4.95724ZM67.5113 7.43583C66.3408 5.90533 64.4189 4.95724 61.4369 4.95724V5.95724C64.1918 5.95724 65.7816 6.82028 66.717 8.04331L67.5113 7.43583ZM67.2905 7.23957L67.1141 7.23957L67.1141 8.23957L67.2905 8.23957L67.2905 7.23957ZM66.7905 5.45724V7.73957H67.7905V5.45724H66.7905ZM71.499 4.95724H67.2905V5.95724H71.499V4.95724ZM57.6984 13.2286C57.6984 13.8363 57.8181 14.9887 58.5103 16.0032C59.2253 17.0512 60.4998 17.8766 62.6455 17.8766V16.8766C60.7949 16.8766 59.8459 16.1865 59.3364 15.4396C58.804 14.6594 58.6984 13.7377 58.6984 13.2286H57.6984ZM62.6527 8.58062C60.4984 8.58062 59.2192 9.37701 58.5028 10.4176C57.8094 11.4246 57.6984 12.5811 57.6984 13.2286H58.6984C58.6984 12.6669 58.7999 11.7494 59.3264 10.9847C59.8298 10.2536 60.7778 9.58062 62.6527 9.58062V8.58062ZM67.5273 13.2286C67.5273 12.1336 67.3371 10.9544 66.5873 10.0472C65.8218 9.121 64.5614 8.58062 62.6527 8.58062V9.58062C64.3755 9.58062 65.3025 10.0624 65.8164 10.6842C66.346 11.325 66.5273 12.2199 66.5273 13.2286H67.5273ZM62.6455 17.8766C64.538 17.8766 65.8056 17.4092 66.58 16.5107C67.3414 15.6273 67.5273 14.4366 67.5273 13.2286H66.5273C66.5273 14.3717 66.3422 15.2549 65.8225 15.8578C65.316 16.4455 64.3926 16.8766 62.6455 16.8766V17.8766ZM107.447 15.5311C107.249 17.0677 106.538 18.2873 105.301 19.1354C104.048 19.9937 102.212 20.5 99.7256 20.5V21.5C102.333 21.5 104.391 20.9709 105.866 19.9603C107.356 18.9394 108.207 17.4566 108.439 15.6592L107.447 15.5311ZM103.869 16.0951H107.943V15.0951H103.869V16.0951ZM99.7256 17.8143C102.28 17.8143 103.831 17.1057 104.337 15.7724L103.402 15.4178C103.134 16.1244 102.197 16.8143 99.7256 16.8143V17.8143ZM94.9809 14.2779C95.1371 15.4037 95.5644 16.3197 96.3877 16.9397C97.1967 17.5489 98.3126 17.8143 99.7256 17.8143V16.8143C98.4175 16.8143 97.5528 16.5652 96.9893 16.1409C96.4401 15.7273 96.1033 15.0908 95.9714 14.1405L94.9809 14.2779ZM107.848 13.7092H95.4762V14.7092H107.848V13.7092ZM107.348 14.2081V14.2092H108.348V14.2081H107.348ZM108.003 13.7081H107.848V14.7081H108.003V13.7081ZM104.697 7.18276C107.463 9.0507 107.738 12.0926 107.506 14.1521L108.499 14.2642C108.747 12.0651 108.485 8.53414 105.257 6.35402L104.697 7.18276ZM105.477 6.77393V6.76839H104.477V6.77393H105.477ZM99.7256 5.80913C101.836 5.80913 103.476 6.3371 104.691 7.18405L105.263 6.36381C103.854 5.38134 102.005 4.80913 99.7256 4.80913V5.80913ZM91.8896 13.1544C91.8896 10.7217 92.6291 8.90673 93.9331 7.69569C95.2428 6.47945 97.1898 5.80913 99.7256 5.80913V4.80913C97.0221 4.80913 94.8012 5.52484 93.2526 6.96294C91.6984 8.40625 90.8896 10.514 90.8896 13.1544H91.8896ZM99.7256 20.5C97.1455 20.5 95.2008 19.8505 93.9039 18.6487C92.6132 17.4528 91.8896 15.6408 91.8896 13.1544H90.8896C90.8896 15.8368 91.6758 17.9475 93.2242 19.3822C94.7662 20.8111 96.9897 21.5 99.7256 21.5V20.5ZM103.824 10.9261H95.6371V11.9261H103.824V10.9261ZM99.7256 9.49479C101.157 9.49479 101.975 9.79795 102.466 10.1719C102.954 10.5429 103.187 11.0348 103.345 11.5678L104.304 11.2844C104.118 10.6537 103.799 9.93 103.072 9.37624C102.348 8.82548 101.289 8.49479 99.7256 8.49479V9.49479ZM96.1149 11.5734C96.3262 10.888 96.6977 10.3863 97.2526 10.0464C97.8189 9.69937 98.6192 9.49479 99.7256 9.49479V8.49479C98.5068 8.49479 97.5055 8.71864 96.7302 9.19368C95.9434 9.67573 95.4334 10.3897 95.1593 11.2788L96.1149 11.5734ZM113.26 14.0306V21H114.26V14.0306H113.26ZM117.81 8.98814C116.1 8.98814 114.931 9.66741 114.208 10.68C113.504 11.6666 113.26 12.9173 113.26 14.0306H114.26C114.26 13.0402 114.481 12.0197 115.022 11.2609C115.545 10.5282 116.401 9.98814 117.81 9.98814V8.98814ZM120.73 9.35276C120.303 9.2331 119.194 8.98814 117.81 8.98814V9.98814C119.086 9.98814 120.103 10.2155 120.46 10.3156L120.73 9.35276ZM120.772 5.7753L120.102 9.7511L121.088 9.91729L121.758 5.94149L120.772 5.7753ZM120.918 6.29324C120.999 6.3114 121.079 6.32943 121.157 6.34668L121.373 5.3701C121.297 5.35344 121.219 5.33594 121.138 5.31768L120.918 6.29324ZM120.921 6.29387L120.922 6.29391L121.135 5.31701L121.135 5.31697L120.921 6.29387ZM118.508 5.96555C119.458 5.96555 120.235 6.13937 120.918 6.2932L121.138 5.31764C120.454 5.16356 119.58 4.96555 118.508 4.96555V5.96555ZM114.454 7.99893C114.866 7.28977 115.266 6.80595 115.836 6.48407C116.411 6.15874 117.219 5.96555 118.508 5.96555V4.96555C117.132 4.96555 116.129 5.16963 115.343 5.61352C114.552 6.06086 114.042 6.71821 113.59 7.49682L114.454 7.99893ZM113.76 8.24788H114.022V7.24788H113.76V8.24788ZM113.26 5.46555V7.74788H114.26V5.46555H113.26ZM109.551 5.96555H113.76V4.96555H109.551V5.96555ZM110.051 21V5.46555H109.051V21H110.051ZM113.76 20.5H109.551V21.5H113.76V20.5ZM130.981 21.5C133.359 21.5 135.353 21.3175 136.757 20.585C137.476 20.2103 138.048 19.6885 138.434 18.9776C138.817 18.2723 139 17.4147 139 16.3935H138C138 17.2989 137.838 17.9804 137.555 18.5001C137.276 19.0141 136.861 19.4032 136.295 19.6984C135.13 20.3058 133.364 20.5 130.981 20.5V21.5ZM123.466 19.457C124.863 20.8668 127.456 21.5 130.981 21.5V20.5C127.495 20.5 125.27 19.8569 124.176 18.753L123.466 19.457ZM122.264 16.2486C122.273 17.0784 122.387 18.3665 123.466 19.4566L124.177 18.7533C123.377 17.9452 123.272 16.9884 123.264 16.2379L122.264 16.2486ZM122.265 15.9258L122.264 16.2426L123.264 16.244L123.265 15.9272L122.265 15.9258ZM122.266 15.6225L122.265 15.9237L123.265 15.9292L123.266 15.628L122.266 15.6225ZM127.085 15.1253H122.766V16.1253H127.085V15.1253ZM127.585 15.759V15.6253H126.585V15.759H127.585ZM130.869 17.1787C129.482 17.1787 128.643 17.0276 128.161 16.7742C127.934 16.6546 127.801 16.5191 127.719 16.3738C127.636 16.2253 127.585 16.0295 127.585 15.759H126.585C126.585 16.1523 126.659 16.5283 126.848 16.8641C127.038 17.2033 127.326 17.4647 127.696 17.6591C128.407 18.0337 129.46 18.1787 130.869 18.1787V17.1787ZM133.667 16.4575C133.667 16.5565 133.636 16.6286 133.552 16.7045C133.453 16.7945 133.28 16.8878 133.009 16.9667C132.468 17.1247 131.703 17.1787 130.869 17.1787V18.1787C131.718 18.1787 132.603 18.1269 133.289 17.9267C133.633 17.8265 133.969 17.6776 134.225 17.444C134.497 17.1963 134.667 16.8633 134.667 16.4575H133.667ZM130.936 15.3685C131.786 15.4688 132.512 15.5686 133.027 15.7675C133.278 15.8648 133.438 15.9711 133.533 16.0775C133.617 16.1719 133.667 16.2856 133.667 16.4575H134.667C134.667 16.0462 134.53 15.6947 134.28 15.4132C134.041 15.1437 133.72 14.9635 133.387 14.8348C132.733 14.5817 131.873 14.4721 131.053 14.3754L130.936 15.3685ZM130.272 15.2872C130.485 15.3151 130.71 15.342 130.936 15.3686L131.053 14.3754C130.828 14.3489 130.608 14.3226 130.401 14.2956L130.272 15.2872ZM122.613 10.116C122.613 10.9677 122.804 11.7035 123.188 12.3311C123.571 12.9568 124.126 13.4434 124.805 13.8289C126.146 14.5891 128.038 14.9919 130.271 15.2871L130.402 14.2957C128.174 14.0012 126.455 13.6149 125.299 12.9591C124.73 12.6366 124.316 12.2585 124.041 11.8093C123.767 11.3621 123.613 10.8129 123.613 10.116H122.613ZM130.314 4.86394C127.277 4.86394 125.338 5.5218 124.154 6.54953C122.957 7.58898 122.613 8.93516 122.613 10.116H123.613C123.613 9.12918 123.894 8.09932 124.809 7.30465C125.738 6.49827 127.399 5.86394 130.314 5.86394V4.86394ZM138.589 10.6022C138.589 9.31364 138.222 7.84706 136.942 6.71292C135.674 5.58894 133.589 4.86394 130.314 4.86394V5.86394C133.463 5.86394 135.266 6.56347 136.279 7.4613C137.28 8.34897 137.589 9.50151 137.589 10.6022H138.589ZM138.589 10.7351V10.6022H137.589V10.7351H138.589ZM133.807 11.2351H138.089V10.2351H133.807V11.2351ZM133.307 10.6013V10.7351H134.307V10.6013H133.307ZM130.314 9.23096C131.516 9.23096 132.285 9.3926 132.738 9.64456C132.956 9.76562 133.091 9.90197 133.175 10.045C133.258 10.1883 133.307 10.3679 133.307 10.6013H134.307C134.307 10.2233 134.226 9.86322 134.039 9.5412C133.851 9.21886 133.573 8.96406 133.224 8.77041C132.545 8.39296 131.567 8.23096 130.314 8.23096V9.23096ZM127.971 10.062C127.971 10.0043 127.998 9.8233 128.284 9.63553C128.587 9.437 129.188 9.23096 130.314 9.23096V8.23096C129.088 8.23096 128.267 8.45155 127.736 8.79909C127.19 9.1574 126.971 9.64193 126.971 10.062H127.971ZM130.726 11.0387C129.372 10.8354 128.652 10.6465 128.274 10.4556C128.097 10.3656 128.035 10.2941 128.011 10.2563C127.99 10.2226 127.971 10.1726 127.971 10.062H126.971C126.971 10.293 127.012 10.547 127.165 10.7897C127.316 11.0284 127.543 11.206 127.823 11.3477C128.361 11.6202 129.231 11.8254 130.578 12.0277L130.726 11.0387ZM131.075 11.0911L130.726 11.0387L130.578 12.0277L130.927 12.08L131.075 11.0911ZM131.353 11.1325L131.075 11.091L130.927 12.0801L131.206 12.1216L131.353 11.1325ZM131.915 11.218L131.355 11.1327L131.204 12.1214L131.765 12.2066L131.915 11.218ZM139 16.3935C139 15.4561 138.765 14.6728 138.338 14.0246C137.913 13.3806 137.318 12.8991 136.639 12.5301C135.297 11.8016 133.55 11.4721 131.917 11.2183L131.763 12.2064C133.41 12.4624 134.993 12.774 136.161 13.4088C136.737 13.7216 137.192 14.1024 137.503 14.575C137.812 15.0436 138 15.6314 138 16.3935H139Z" fill="black"/>
<path d="M89.8261 21V21.5H90.8037L90.2315 20.7074L89.8261 21ZM83.2973 11.9554L82.9464 11.5992L82.6408 11.9002L82.8919 12.248L83.2973 11.9554ZM84.5998 21L84.1944 21.2926L84.344 21.5H84.5998V21ZM80.2425 14.9633L80.648 14.6707L80.3068 14.1981L79.8916 14.6072L80.2425 14.9633ZM77.2223 17.9386L76.8714 17.5824L76.7223 17.7293V17.9386H77.2223ZM77.2223 20.9543V21.4543H77.7223V20.9543H77.2223ZM73.0351 20.9543H72.5351V21.4543H73.0351V20.9543ZM73.0351 1V0.5H72.5351V1H73.0351ZM77.2223 1H77.7223V0.5H77.2223V1ZM77.2223 12.2226H76.7223V13.4196L77.5738 12.5782L77.2223 12.2226ZM84.0577 5.46748V4.96748H83.8523L83.7063 5.11185L84.0577 5.46748ZM89.8847 5.46748L90.2356 5.82372L91.1049 4.96748H89.8847V5.46748ZM52.6033 15.5951L53.0992 15.6592L53.172 15.0951H52.6033V15.5951ZM49.637 6.77393L49.351 7.18405L50.137 7.73219V6.77393H49.637ZM49.637 6.76839L49.9168 6.35402L49.137 5.82741V6.76839H49.637ZM52.6627 14.2081V14.7081H53.1095L53.1596 14.2642L52.6627 14.2081ZM52.5082 14.2081V13.7081H52.0065L52.0082 14.2098L52.5082 14.2081ZM52.5082 14.2092V14.7092H53.0099L53.0082 14.2075L52.5082 14.2092ZM40.1364 14.2092V13.7092H39.5622L39.6411 14.2779L40.1364 14.2092ZM48.5294 15.5951V15.0951H48.1842L48.0619 15.4178L48.5294 15.5951ZM10.076 11.7123L10.1528 11.2183L10.1512 11.218L10.076 11.7123ZM9.51536 11.6271L9.59054 11.1327L9.58915 11.1325L9.51536 11.6271ZM9.23701 11.5855L9.1629 12.08L9.16322 12.0801L9.23701 11.5855ZM8.88789 11.5332L8.81364 12.0277L8.81378 12.0277L8.88789 11.5332ZM12.043 10.7351H11.543V11.2351H12.043V10.7351ZM16.3245 10.7351V11.2351H16.8245V10.7351H16.3245ZM8.57249 14.7914L8.50696 15.2871L8.50781 15.2872L8.57249 14.7914ZM9.23065 14.872L9.28921 14.3754L9.28909 14.3754L9.23065 14.872ZM5.32121 15.6253H5.82121V15.1253H5.32121V15.6253ZM1.0021 15.6253V15.1253H0.504846L0.502108 15.6225L1.0021 15.6253ZM1.00044 15.9265L0.500445 15.9237L0.500443 15.9258L1.00044 15.9265ZM1 16.2433L0.499964 16.2426L0.500029 16.2486L1 16.2433ZM2.05693 19.105L1.70148 19.4566L1.70182 19.457L2.05693 19.105ZM22.4271 21V21.5H22.9271V21H22.4271ZM30.3716 13.0247L29.8716 13.0194L29.8716 13.0197L30.3716 13.0247ZM30.3706 13.1287L29.8706 13.1237L29.8706 13.1287L30.3706 13.1287ZM30.3701 21L29.8701 21L29.87 21.5H30.3701V21ZM34.551 21V21.5H35.051V21H34.551ZM34.551 13.2322L35.051 13.2322L35.051 13.232L34.551 13.2322ZM27.819 5.46555L27.819 4.96555L27.819 4.96555L27.819 5.46555ZM22.6244 7.74594V8.24594H22.8779L23.0278 8.04144L22.6244 7.74594ZM22.4271 7.74594H21.9271V8.24594H22.4271V7.74594ZM22.4271 5.46748H22.9271V4.96748H22.4271V5.46748ZM18.2205 5.46748V4.96748H17.7205V5.46748H18.2205ZM18.2205 21H17.7205V21.5H18.2205V21ZM40.2972 11.4261L39.8194 11.2788L39.6199 11.9261H40.2972V11.4261ZM48.4846 11.4261V11.9261H49.1537L48.9641 11.2844L48.4846 11.4261ZM71.499 21V21.5H71.999V21H71.499ZM71.499 5.45724H71.999V4.95724H71.499V5.45724ZM67.2905 21H66.7905V21.5H67.2905V21ZM67.2905 18.8312H67.7905V18.3312H67.2905V18.8312ZM67.1589 18.8312V18.3312H66.9142L66.7641 18.5244L67.1589 18.8312ZM54.1831 13.2286L53.6831 13.2256V13.2286H54.1831ZM54.1839 13.0917L53.6839 13.0856L53.6839 13.0887L54.1839 13.0917ZM67.1141 7.73957L66.717 8.04331L66.867 8.23957L67.1141 8.23957L67.1141 7.73957ZM67.2905 7.73957L67.2905 8.23957L67.7905 8.23957V7.73957H67.2905ZM67.2905 5.45724V4.95724H66.7905V5.45724H67.2905ZM107.943 15.5951L108.439 15.6592L108.512 15.0951H107.943V15.5951ZM103.869 15.5951V15.0951H103.524L103.402 15.4178L103.869 15.5951ZM95.4762 14.2092V13.7092H94.902L94.9809 14.2779L95.4762 14.2092ZM107.848 14.2092V14.7092H108.348V14.2092H107.848ZM107.848 14.2081V13.7081H107.348V14.2081H107.848ZM108.003 14.2081V14.7081H108.449L108.499 14.2642L108.003 14.2081ZM104.977 6.76839L105.257 6.35402L104.477 5.82741V6.76839H104.977ZM104.977 6.77393L104.691 7.18405L105.477 7.7322V6.77393H104.977ZM103.824 11.4261V11.9261H104.494L104.304 11.2844L103.824 11.4261ZM95.6371 11.4261L95.1593 11.2788L94.9597 11.9261H95.6371V11.4261ZM113.76 21V21.5H114.26V21H113.76ZM120.595 9.8342L120.46 10.3156L120.996 10.4658L121.088 9.91729L120.595 9.8342ZM121.265 5.85839L121.758 5.94149L121.837 5.47244L121.373 5.3701L121.265 5.85839ZM121.028 5.80546L121.138 5.31767L121.135 5.31701L121.028 5.80546ZM121.028 5.80542L120.918 6.29321L120.921 6.29387L121.028 5.80542ZM114.022 7.74788V8.24788H114.31L114.454 7.99893L114.022 7.74788ZM113.76 7.74788H113.26V8.24788H113.76V7.74788ZM113.76 5.46555H114.26V4.96555H113.76V5.46555ZM109.551 5.46555V4.96555H109.051V5.46555H109.551ZM109.551 21H109.051V21.5H109.551V21ZM123.821 19.105L123.466 19.4566L123.466 19.457L123.821 19.105ZM122.764 16.2433L122.264 16.2426L122.264 16.2486L122.764 16.2433ZM122.765 15.9265L122.265 15.9237L122.265 15.9258L122.765 15.9265ZM122.766 15.6253V15.1253H122.269L122.266 15.6225L122.766 15.6253ZM127.085 15.6253H127.585V15.1253H127.085V15.6253ZM130.995 14.872L131.053 14.3754L131.053 14.3754L130.995 14.872ZM130.337 14.7914L130.271 15.2871L130.272 15.2872L130.337 14.7914ZM138.089 10.7351V11.2351H138.589V10.7351H138.089ZM133.807 10.7351H133.307V11.2351H133.807V10.7351ZM130.652 11.5332L130.578 12.0277L130.578 12.0277L130.652 11.5332ZM131.001 11.5855L130.927 12.08L130.927 12.0801L131.001 11.5855ZM131.28 11.6271L131.355 11.1327L131.353 11.1325L131.28 11.6271ZM131.84 11.7123L131.917 11.2183L131.915 11.218L131.84 11.7123ZM90.2315 20.7074L83.7027 11.6628L82.8919 12.248L89.4207 21.2926L90.2315 20.7074ZM84.5998 21.5H89.8261V20.5H84.5998V21.5ZM79.8371 15.256L84.1944 21.2926L85.0052 20.7074L80.648 14.6707L79.8371 15.256ZM77.5732 18.2948L80.5934 15.3195L79.8916 14.6072L76.8714 17.5824L77.5732 18.2948ZM77.7223 20.9543V17.9386H76.7223V20.9543H77.7223ZM73.0351 21.4543H77.2223V20.4543H73.0351V21.4543ZM72.5351 1V20.9543H73.5351V1H72.5351ZM77.2223 0.5H73.0351V1.5H77.2223V0.5ZM77.7223 12.2226V1H76.7223V12.2226H77.7223ZM83.7063 5.11185L76.8709 11.8669L77.5738 12.5782L84.4092 5.82312L83.7063 5.11185ZM89.8847 4.96748H84.0577V5.96748H89.8847V4.96748ZM83.6481 12.3116L90.2356 5.82372L89.5339 5.11125L82.9464 11.5992L83.6481 12.3116ZM44.3858 21.5C46.9936 21.5 49.0511 20.9709 50.526 19.9603C52.0159 18.9394 52.867 17.4566 53.0992 15.6592L52.1074 15.5311C51.9089 17.0677 51.1984 18.2873 49.9608 19.1354C48.7082 19.9937 46.8723 20.5 44.3858 20.5V21.5ZM35.5497 13.1544C35.5497 15.8368 36.336 17.9475 37.8844 19.3822C39.4264 20.8111 41.6498 21.5 44.3858 21.5V20.5C41.8056 20.5 39.861 19.8505 38.5641 18.6487C37.2734 17.4528 36.5497 15.6408 36.5497 13.1544H35.5497ZM44.3858 4.80913C41.6823 4.80913 39.4613 5.52484 37.9128 6.96294C36.3586 8.40625 35.5497 10.514 35.5497 13.1544H36.5497C36.5497 10.7217 37.2892 8.90673 38.5933 7.69569C39.9029 6.47945 41.85 5.80913 44.3858 5.80913V4.80913ZM49.923 6.36381C48.5142 5.38134 46.6654 4.80913 44.3858 4.80913V5.80913C46.4958 5.80913 48.1365 6.3371 49.351 7.18405L49.923 6.36381ZM49.137 6.76839V6.77393H50.137V6.76839H49.137ZM53.1596 14.2642C53.4077 12.0651 53.1452 8.53414 49.9168 6.35402L49.3572 7.18276C52.1233 9.0507 52.3982 12.0926 52.1659 14.1521L53.1596 14.2642ZM52.5082 14.7081H52.6627V13.7081H52.5082V14.7081ZM53.0082 14.2075L53.0082 14.2064L52.0082 14.2098L52.0082 14.2109L53.0082 14.2075ZM40.1364 14.7092H52.5082V13.7092H40.1364V14.7092ZM44.3858 16.8143C43.0777 16.8143 42.2129 16.5652 41.6495 16.1409C41.1003 15.7273 40.7635 15.0908 40.6316 14.1405L39.6411 14.2779C39.7973 15.4037 40.2246 16.3197 41.0479 16.9397C41.8569 17.5489 42.9728 17.8143 44.3858 17.8143V16.8143ZM48.0619 15.4178C47.794 16.1244 46.857 16.8143 44.3858 16.8143V17.8143C46.94 17.8143 48.4914 17.1057 48.9969 15.7724L48.0619 15.4178ZM52.6033 15.0951H48.5294V16.0951H52.6033V15.0951ZM16.2358 16.3935C16.2358 17.2989 16.0737 17.9804 15.7912 18.5001C15.5118 19.0141 15.0966 19.4032 14.5306 19.6984C13.3659 20.3058 11.5998 20.5 9.21683 20.5V21.5C11.5952 21.5 13.5886 21.3175 14.9931 20.585C15.7116 20.2103 16.2834 19.6885 16.6698 18.9776C17.0532 18.2723 17.2358 17.4147 17.2358 16.3935H16.2358ZM9.99917 12.2064C11.6459 12.4624 13.2284 12.774 14.3971 13.4088C14.9729 13.7216 15.4273 14.1024 15.739 14.575C16.0479 15.0436 16.2358 15.6314 16.2358 16.3935H17.2358C17.2358 15.4561 17.0012 14.6728 16.5739 14.0246C16.1492 13.3806 15.5537 12.8991 14.8745 12.5301C13.5333 11.8016 11.7858 11.4721 10.1528 11.2183L9.99917 12.2064ZM9.44018 12.1214L10.0008 12.2066L10.1512 11.218L9.59054 11.1327L9.44018 12.1214ZM9.16322 12.0801L9.44157 12.1216L9.58915 11.1325L9.3108 11.091L9.16322 12.0801ZM8.81378 12.0277L9.1629 12.08L9.31112 11.0911L8.962 11.0387L8.81378 12.0277ZM5.20681 10.062C5.20681 10.293 5.24796 10.547 5.40109 10.7897C5.55162 11.0284 5.77868 11.206 6.05852 11.3477C6.59668 11.6202 7.46685 11.8254 8.81364 12.0277L8.96213 11.0387C7.60772 10.8354 6.88736 10.6465 6.51027 10.4556C6.33251 10.3656 6.27077 10.2941 6.24691 10.2563C6.22565 10.2226 6.20681 10.1726 6.20681 10.062H5.20681ZM8.54955 8.23096C7.32381 8.23096 6.50264 8.45155 5.97222 8.79909C5.42538 9.1574 5.20681 9.64193 5.20681 10.062H6.20681C6.20681 10.0043 6.23371 9.8233 6.52028 9.63553C6.82328 9.43699 7.42348 9.23096 8.54955 9.23096V8.23096ZM12.543 10.6013C12.543 10.2233 12.4621 9.86322 12.2743 9.5412C12.0863 9.21886 11.8083 8.96406 11.4598 8.77041C10.7804 8.39296 9.80287 8.23096 8.54955 8.23096V9.23096C9.7514 9.23096 10.5206 9.3926 10.9741 9.64456C11.192 9.76562 11.3271 9.90197 11.4105 10.045C11.4941 10.1883 11.543 10.3679 11.543 10.6013H12.543ZM12.543 10.7351V10.6013H11.543V10.7351H12.543ZM16.3245 10.2351H12.043V11.2351H16.3245V10.2351ZM15.8245 10.6022V10.7351H16.8245V10.6022H15.8245ZM8.54955 5.86394C11.6987 5.86394 13.5017 6.56347 14.5147 7.4613C15.5163 8.34897 15.8245 9.50151 15.8245 10.6022H16.8245C16.8245 9.31364 16.4577 7.84706 15.178 6.71292C13.9098 5.58894 11.8253 4.86394 8.54955 4.86394V5.86394ZM1.84873 10.116C1.84873 9.12918 2.12985 8.09932 3.04517 7.30465C3.97396 6.49827 5.635 5.86394 8.54955 5.86394V4.86394C5.51271 4.86394 3.57334 5.5218 2.38958 6.54953C1.19233 7.58898 0.848734 8.93516 0.848734 10.116H1.84873ZM8.63802 14.2957C6.4102 14.0012 4.69085 13.6149 3.53454 12.9591C2.96598 12.6366 2.55148 12.2585 2.2767 11.8093C2.00314 11.3621 1.84873 10.8129 1.84873 10.116H0.848734C0.848734 10.9677 1.03972 11.7035 1.42364 12.3311C1.80634 12.9568 2.36141 13.4434 3.04121 13.8289C4.38162 14.5891 6.27415 14.9919 8.50696 15.2871L8.63802 14.2957ZM9.28909 14.3754C9.0635 14.3489 8.84392 14.3226 8.63717 14.2956L8.50781 15.2872C8.72123 15.3151 8.94613 15.342 9.17221 15.3686L9.28909 14.3754ZM12.9032 16.4575C12.9032 16.0462 12.7661 15.6947 12.5159 15.4132C12.2764 15.1437 11.9561 14.9635 11.6231 14.8348C10.9685 14.5817 10.1086 14.4721 9.28921 14.3754L9.17209 15.3685C10.0218 15.4688 10.7481 15.5686 11.2625 15.7675C11.514 15.8648 11.6739 15.9711 11.7684 16.0775C11.8523 16.1719 11.9032 16.2856 11.9032 16.4575H12.9032ZM9.10515 18.1787C9.95406 18.1787 10.8388 18.1269 11.5252 17.9267C11.8688 17.8265 12.2045 17.6776 12.4611 17.444C12.7331 17.1963 12.9032 16.8633 12.9032 16.4575H11.9032C11.9032 16.5565 11.8713 16.6286 11.7879 16.7045C11.6891 16.7945 11.5158 16.8878 11.2453 16.9667C10.7034 17.1247 9.93911 17.1787 9.10515 17.1787V18.1787ZM4.82121 15.759C4.82121 16.1523 4.89445 16.5283 5.08336 16.8641C5.27413 17.2033 5.56229 17.4647 5.93144 17.6591C6.64298 18.0337 7.69539 18.1787 9.10515 18.1787V17.1787C7.71808 17.1787 6.87851 17.0276 6.39729 16.7742C6.17006 16.6546 6.03664 16.5191 5.95492 16.3738C5.87135 16.2253 5.82121 16.0295 5.82121 15.759H4.82121ZM4.82121 15.6253V15.759H5.82121V15.6253H4.82121ZM1.0021 16.1253H5.32121V15.1253H1.0021V16.1253ZM1.50043 15.9293L1.50209 15.628L0.502108 15.6225L0.50045 15.9237L1.50043 15.9293ZM1.5 16.244L1.50044 15.9272L0.500443 15.9258L0.5 16.2426L1.5 16.244ZM2.41238 18.7533C1.61292 17.9452 1.508 16.9884 1.49997 16.2379L0.500029 16.2486C0.508907 17.0784 0.623061 18.3665 1.70148 19.4566L2.41238 18.7533ZM9.21683 20.5C5.73086 20.5 3.50628 19.8569 2.41204 18.753L1.70182 19.457C3.09926 20.8668 5.69217 21.5 9.21683 21.5V20.5ZM21.9271 13.5096V21H22.9271V13.5096H21.9271ZM26.6033 8.58726C24.6736 8.58726 23.4531 9.21137 22.7445 10.2227C22.0621 11.1969 21.9271 12.4345 21.9271 13.5096H22.9271C22.9271 12.4813 23.0653 11.5077 23.5635 10.7965C24.0357 10.1226 24.9033 9.58726 26.6033 9.58726V8.58726ZM30.8716 13.0301C30.8784 12.3958 30.9005 11.2747 30.3561 10.3187C29.7773 9.3021 28.6378 8.58726 26.6033 8.58726V9.58726C28.3792 9.58726 29.1309 10.1879 29.4871 10.8135C29.8778 11.4996 29.8788 12.3472 29.8716 13.0194L30.8716 13.0301ZM30.8706 13.1337L30.8716 13.0297L29.8716 13.0197L29.8706 13.1237L30.8706 13.1337ZM30.8701 21L30.8706 13.1288L29.8706 13.1287L29.8701 21L30.8701 21ZM34.551 20.5H30.3701V21.5H34.551V20.5ZM34.051 13.2322V21H35.051V13.2322H34.051ZM27.819 5.96555C29.3873 5.96555 30.5362 6.29414 31.3835 6.79186C32.2292 7.28868 32.8048 7.97182 33.1998 8.73081C34.0012 10.2705 34.0506 12.0997 34.051 13.2324L35.051 13.232C35.0506 12.101 35.0122 10.0469 34.0869 8.26912C33.6186 7.36941 32.9211 6.53535 31.89 5.92963C30.8604 5.32481 29.5288 4.96555 27.819 4.96555V5.96555ZM23.0278 8.04144C23.4916 7.40828 24.0361 6.89898 24.7735 6.5428C25.5149 6.18465 26.4842 5.96555 27.819 5.96555L27.819 4.96555C26.376 4.96555 25.2493 5.20241 24.3385 5.64235C23.4237 6.08424 22.7598 6.71513 22.2211 7.45044L23.0278 8.04144ZM22.4271 8.24594H22.6244V7.24594H22.4271V8.24594ZM21.9271 5.46748V7.74594H22.9271V5.46748H21.9271ZM18.2205 5.96748H22.4271V4.96748H18.2205V5.96748ZM18.7205 21V5.46748H17.7205V21H18.7205ZM22.4271 20.5H18.2205V21.5H22.4271V20.5ZM40.2972 11.9261H48.4846V10.9261H40.2972V11.9261ZM44.3858 8.49479C43.167 8.49479 42.1657 8.71864 41.3904 9.19368C40.6036 9.67573 40.0935 10.3897 39.8194 11.2788L40.7751 11.5734C40.9864 10.888 41.3579 10.3863 41.9128 10.0464C42.4791 9.69937 43.2794 9.49479 44.3858 9.49479V8.49479ZM48.9641 11.2844C48.7777 10.6537 48.4595 9.93 47.732 9.37624C47.0085 8.82548 45.9492 8.49479 44.3858 8.49479V9.49479C45.8169 9.49479 46.635 9.79795 47.1263 10.1719C47.6137 10.5429 47.8476 11.0348 48.0051 11.5678L48.9641 11.2844ZM71.999 21V5.45724H70.999V21H71.999ZM67.2905 21.5H71.499V20.5H67.2905V21.5ZM66.7905 18.8312V21H67.7905V18.8312H66.7905ZM67.1589 19.3312H67.2905V18.3312H67.1589V19.3312ZM61.4251 21.5C64.4325 21.5 66.3768 20.6524 67.5537 19.138L66.7641 18.5244C65.8407 19.7126 64.2457 20.5 61.4251 20.5V21.5ZM53.6831 13.2286C53.6831 14.3151 53.8705 16.3619 54.9331 18.1541C56.0187 19.9849 57.9914 21.5 61.4251 21.5V20.5C58.3498 20.5 56.7015 19.1757 55.7933 17.6441C54.8622 16.0737 54.6831 14.2348 54.6831 13.2286H53.6831ZM53.6839 13.0887L53.6831 13.2256L54.6831 13.2317L54.6839 13.0948L53.6839 13.0887ZM61.4369 4.95724C58.0547 4.95724 56.0848 6.36392 54.9844 8.13212C53.9079 9.86199 53.6987 11.8789 53.6839 13.0856L54.6839 13.0978C54.6977 11.9627 54.8988 10.1624 55.8335 8.66049C56.7443 7.19689 58.3867 5.95724 61.4369 5.95724V4.95724ZM67.5113 7.43583C66.3408 5.90533 64.4189 4.95724 61.4369 4.95724V5.95724C64.1918 5.95724 65.7816 6.82028 66.717 8.04331L67.5113 7.43583ZM67.2905 7.23957L67.1141 7.23957L67.1141 8.23957L67.2905 8.23957L67.2905 7.23957ZM66.7905 5.45724V7.73957H67.7905V5.45724H66.7905ZM71.499 4.95724H67.2905V5.95724H71.499V4.95724ZM57.6984 13.2286C57.6984 13.8363 57.8181 14.9887 58.5103 16.0032C59.2253 17.0512 60.4998 17.8766 62.6455 17.8766V16.8766C60.7949 16.8766 59.8459 16.1865 59.3364 15.4396C58.804 14.6594 58.6984 13.7377 58.6984 13.2286H57.6984ZM62.6527 8.58062C60.4984 8.58062 59.2192 9.37701 58.5028 10.4176C57.8094 11.4246 57.6984 12.5811 57.6984 13.2286H58.6984C58.6984 12.6669 58.7999 11.7494 59.3264 10.9847C59.8298 10.2536 60.7778 9.58062 62.6527 9.58062V8.58062ZM67.5273 13.2286C67.5273 12.1336 67.3371 10.9544 66.5873 10.0472C65.8218 9.121 64.5614 8.58062 62.6527 8.58062V9.58062C64.3755 9.58062 65.3025 10.0624 65.8164 10.6842C66.346 11.325 66.5273 12.2199 66.5273 13.2286H67.5273ZM62.6455 17.8766C64.538 17.8766 65.8056 17.4092 66.58 16.5107C67.3414 15.6273 67.5273 14.4366 67.5273 13.2286H66.5273C66.5273 14.3717 66.3422 15.2549 65.8225 15.8578C65.316 16.4455 64.3926 16.8766 62.6455 16.8766V17.8766ZM107.447 15.5311C107.249 17.0677 106.538 18.2873 105.301 19.1354C104.048 19.9937 102.212 20.5 99.7256 20.5V21.5C102.333 21.5 104.391 20.9709 105.866 19.9603C107.356 18.9394 108.207 17.4566 108.439 15.6592L107.447 15.5311ZM103.869 16.0951H107.943V15.0951H103.869V16.0951ZM99.7256 17.8143C102.28 17.8143 103.831 17.1057 104.337 15.7724L103.402 15.4178C103.134 16.1244 102.197 16.8143 99.7256 16.8143V17.8143ZM94.9809 14.2779C95.1371 15.4037 95.5644 16.3197 96.3877 16.9397C97.1967 17.5489 98.3126 17.8143 99.7256 17.8143V16.8143C98.4175 16.8143 97.5528 16.5652 96.9893 16.1409C96.4401 15.7273 96.1033 15.0908 95.9714 14.1405L94.9809 14.2779ZM107.848 13.7092H95.4762V14.7092H107.848V13.7092ZM107.348 14.2081V14.2092H108.348V14.2081H107.348ZM108.003 13.7081H107.848V14.7081H108.003V13.7081ZM104.697 7.18276C107.463 9.0507 107.738 12.0926 107.506 14.1521L108.499 14.2642C108.747 12.0651 108.485 8.53414 105.257 6.35402L104.697 7.18276ZM105.477 6.77393V6.76839H104.477V6.77393H105.477ZM99.7256 5.80913C101.836 5.80913 103.476 6.3371 104.691 7.18405L105.263 6.36381C103.854 5.38134 102.005 4.80913 99.7256 4.80913V5.80913ZM91.8896 13.1544C91.8896 10.7217 92.6291 8.90673 93.9331 7.69569C95.2428 6.47945 97.1898 5.80913 99.7256 5.80913V4.80913C97.0221 4.80913 94.8012 5.52484 93.2526 6.96294C91.6984 8.40625 90.8896 10.514 90.8896 13.1544H91.8896ZM99.7256 20.5C97.1455 20.5 95.2008 19.8505 93.9039 18.6487C92.6132 17.4528 91.8896 15.6408 91.8896 13.1544H90.8896C90.8896 15.8368 91.6758 17.9475 93.2242 19.3822C94.7662 20.8111 96.9897 21.5 99.7256 21.5V20.5ZM103.824 10.9261H95.6371V11.9261H103.824V10.9261ZM99.7256 9.49479C101.157 9.49479 101.975 9.79795 102.466 10.1719C102.954 10.5429 103.187 11.0348 103.345 11.5678L104.304 11.2844C104.118 10.6537 103.799 9.93 103.072 9.37624C102.348 8.82548 101.289 8.49479 99.7256 8.49479V9.49479ZM96.1149 11.5734C96.3262 10.888 96.6977 10.3863 97.2526 10.0464C97.8189 9.69937 98.6192 9.49479 99.7256 9.49479V8.49479C98.5068 8.49479 97.5055 8.71864 96.7302 9.19368C95.9434 9.67573 95.4334 10.3897 95.1593 11.2788L96.1149 11.5734ZM113.26 14.0306V21H114.26V14.0306H113.26ZM117.81 8.98814C116.1 8.98814 114.931 9.66741 114.208 10.68C113.504 11.6666 113.26 12.9173 113.26 14.0306H114.26C114.26 13.0402 114.481 12.0197 115.022 11.2609C115.545 10.5282 116.401 9.98814 117.81 9.98814V8.98814ZM120.73 9.35276C120.303 9.2331 119.194 8.98814 117.81 8.98814V9.98814C119.086 9.98814 120.103 10.2155 120.46 10.3156L120.73 9.35276ZM120.772 5.7753L120.102 9.7511L121.088 9.91729L121.758 5.94149L120.772 5.7753ZM120.918 6.29324C120.999 6.3114 121.079 6.32943 121.157 6.34668L121.373 5.3701C121.297 5.35344 121.219 5.33594 121.138 5.31768L120.918 6.29324ZM120.921 6.29387L120.922 6.29391L121.135 5.31701L121.135 5.31697L120.921 6.29387ZM118.508 5.96555C119.458 5.96555 120.235 6.13937 120.918 6.2932L121.138 5.31764C120.454 5.16356 119.58 4.96555 118.508 4.96555V5.96555ZM114.454 7.99893C114.866 7.28977 115.266 6.80595 115.836 6.48407C116.411 6.15874 117.219 5.96555 118.508 5.96555V4.96555C117.132 4.96555 116.129 5.16963 115.343 5.61352C114.552 6.06086 114.042 6.71821 113.59 7.49682L114.454 7.99893ZM113.76 8.24788H114.022V7.24788H113.76V8.24788ZM113.26 5.46555V7.74788H114.26V5.46555H113.26ZM109.551 5.96555H113.76V4.96555H109.551V5.96555ZM110.051 21V5.46555H109.051V21H110.051ZM113.76 20.5H109.551V21.5H113.76V20.5ZM130.981 21.5C133.359 21.5 135.353 21.3175 136.757 20.585C137.476 20.2103 138.048 19.6885 138.434 18.9776C138.817 18.2723 139 17.4147 139 16.3935H138C138 17.2989 137.838 17.9804 137.555 18.5001C137.276 19.0141 136.861 19.4032 136.295 19.6984C135.13 20.3058 133.364 20.5 130.981 20.5V21.5ZM123.466 19.457C124.863 20.8668 127.456 21.5 130.981 21.5V20.5C127.495 20.5 125.27 19.8569 124.176 18.753L123.466 19.457ZM122.264 16.2486C122.273 17.0784 122.387 18.3665 123.466 19.4566L124.177 18.7533C123.377 17.9452 123.272 16.9884 123.264 16.2379L122.264 16.2486ZM122.265 15.9258L122.264 16.2426L123.264 16.244L123.265 15.9272L122.265 15.9258ZM122.266 15.6225L122.265 15.9237L123.265 15.9292L123.266 15.628L122.266 15.6225ZM127.085 15.1253H122.766V16.1253H127.085V15.1253ZM127.585 15.759V15.6253H126.585V15.759H127.585ZM130.869 17.1787C129.482 17.1787 128.643 17.0276 128.161 16.7742C127.934 16.6546 127.801 16.5191 127.719 16.3738C127.636 16.2253 127.585 16.0295 127.585 15.759H126.585C126.585 16.1523 126.659 16.5283 126.848 16.8641C127.038 17.2033 127.326 17.4647 127.696 17.6591C128.407 18.0337 129.46 18.1787 130.869 18.1787V17.1787ZM133.667 16.4575C133.667 16.5565 133.636 16.6286 133.552 16.7045C133.453 16.7945 133.28 16.8878 133.009 16.9667C132.468 17.1247 131.703 17.1787 130.869 17.1787V18.1787C131.718 18.1787 132.603 18.1269 133.289 17.9267C133.633 17.8265 133.969 17.6776 134.225 17.444C134.497 17.1963 134.667 16.8633 134.667 16.4575H133.667ZM130.936 15.3685C131.786 15.4688 132.512 15.5686 133.027 15.7675C133.278 15.8648 133.438 15.9711 133.533 16.0775C133.617 16.1719 133.667 16.2856 133.667 16.4575H134.667C134.667 16.0462 134.53 15.6947 134.28 15.4132C134.041 15.1437 133.72 14.9635 133.387 14.8348C132.733 14.5817 131.873 14.4721 131.053 14.3754L130.936 15.3685ZM130.272 15.2872C130.485 15.3151 130.71 15.342 130.936 15.3686L131.053 14.3754C130.828 14.3489 130.608 14.3226 130.401 14.2956L130.272 15.2872ZM122.613 10.116C122.613 10.9677 122.804 11.7035 123.188 12.3311C123.571 12.9568 124.126 13.4434 124.805 13.8289C126.146 14.5891 128.038 14.9919 130.271 15.2871L130.402 14.2957C128.174 14.0012 126.455 13.6149 125.299 12.9591C124.73 12.6366 124.316 12.2585 124.041 11.8093C123.767 11.3621 123.613 10.8129 123.613 10.116H122.613ZM130.314 4.86394C127.277 4.86394 125.338 5.5218 124.154 6.54953C122.957 7.58898 122.613 8.93516 122.613 10.116H123.613C123.613 9.12918 123.894 8.09932 124.809 7.30465C125.738 6.49827 127.399 5.86394 130.314 5.86394V4.86394ZM138.589 10.6022C138.589 9.31364 138.222 7.84706 136.942 6.71292C135.674 5.58894 133.589 4.86394 130.314 4.86394V5.86394C133.463 5.86394 135.266 6.56347 136.279 7.4613C137.28 8.34897 137.589 9.50151 137.589 10.6022H138.589ZM138.589 10.7351V10.6022H137.589V10.7351H138.589ZM133.807 11.2351H138.089V10.2351H133.807V11.2351ZM133.307 10.6013V10.7351H134.307V10.6013H133.307ZM130.314 9.23096C131.516 9.23096 132.285 9.3926 132.738 9.64456C132.956 9.76562 133.091 9.90197 133.175 10.045C133.258 10.1883 133.307 10.3679 133.307 10.6013H134.307C134.307 10.2233 134.226 9.86322 134.039 9.5412C133.851 9.21886 133.573 8.96406 133.224 8.77041C132.545 8.39296 131.567 8.23096 130.314 8.23096V9.23096ZM127.971 10.062C127.971 10.0043 127.998 9.8233 128.284 9.63553C128.587 9.437 129.188 9.23096 130.314 9.23096V8.23096C129.088 8.23096 128.267 8.45155 127.736 8.79909C127.19 9.1574 126.971 9.64193 126.971 10.062H127.971ZM130.726 11.0387C129.372 10.8354 128.652 10.6465 128.274 10.4556C128.097 10.3656 128.035 10.2941 128.011 10.2563C127.99 10.2226 127.971 10.1726 127.971 10.062H126.971C126.971 10.293 127.012 10.547 127.165 10.7897C127.316 11.0284 127.543 11.206 127.823 11.3477C128.361 11.6202 129.231 11.8254 130.578 12.0277L130.726 11.0387ZM131.075 11.0911L130.726 11.0387L130.578 12.0277L130.927 12.08L131.075 11.0911ZM131.353 11.1325L131.075 11.091L130.927 12.0801L131.206 12.1216L131.353 11.1325ZM131.915 11.218L131.355 11.1327L131.204 12.1214L131.765 12.2066L131.915 11.218ZM139 16.3935C139 15.4561 138.765 14.6728 138.338 14.0246C137.913 13.3806 137.318 12.8991 136.639 12.5301C135.297 11.8016 133.55 11.4721 131.917 11.2183L131.763 12.2064C133.41 12.4624 134.993 12.774 136.161 13.4088C136.737 13.7216 137.192 14.1024 137.503 14.575C137.812 15.0436 138 15.6314 138 16.3935H139Z" fill="black" fill-opacity="0.2"/>
</g>
</g>
</svg>
